<?xml version="1.0" encoding="UTF-8"?>
<svg version="1.1" xmlns="http://www.w3.org/2000/svg" width="1944" height="710">
<path d="M0 0 C0.94511444 -0.00701431 1.89022888 -0.01402863 2.86398315 -0.02125549 C5.89504821 -0.03865682 8.92591808 -0.04510699 11.95703125 -0.046875 C13.50812088 -0.04788712 13.50812088 -0.04788712 15.09054565 -0.04891968 C29.85640524 -0.03358173 44.25940029 0.19037893 58.76953125 3.203125 C59.64673828 3.38004883 60.52394531 3.55697266 61.42773438 3.73925781 C114.87968531 14.80025838 165.83364436 46.33003794 198.76953125 90.203125 C199.35976074 90.98671387 199.35976074 90.98671387 199.96191406 91.78613281 C206.52618464 100.56066441 212.34328379 109.68792789 217.76953125 119.203125 C218.11226074 119.79673828 218.45499023 120.39035156 218.80810547 121.00195312 C231.05202127 142.35993741 238.78887711 166.13067906 243.58203125 190.203125 C243.77692139 191.16105957 243.97181152 192.11899414 244.17260742 193.10595703 C247.80870202 212.61491062 248.05992913 232.44440724 247.99658203 252.22241211 C247.99601625 254.73808793 247.99633773 257.25376407 247.99746704 259.7694397 C247.99791819 265.13294433 247.99235447 270.49638796 247.98099136 275.85987663 C247.96457416 283.61408924 247.959512 291.36827847 247.95701538 299.12250657 C247.95266336 311.71034665 247.93942282 324.29816046 247.92041016 336.88598633 C247.90198619 349.09692251 247.88786181 361.30785151 247.87939453 373.51879883 C247.87886908 374.27444006 247.87834364 375.03008129 247.87780227 375.80862074 C247.87519175 379.60033428 247.87266444 383.39204786 247.87017846 387.18376148 C247.8495238 418.523569 247.81380775 449.86334152 247.76953125 481.203125 C237.86953125 481.203125 227.96953125 481.203125 217.76953125 481.203125 C217.10953125 484.173125 216.44953125 487.143125 215.76953125 490.203125 C213.05357321 495.87547014 209.04934799 499.37648247 203.19140625 501.578125 C196.34800033 503.34416524 190.13521105 502.77917587 183.8125 499.58984375 C178.54560187 496.01479818 175.79524681 491.33729312 174.39453125 485.203125 C174.16539042 483.87320958 173.9491044 482.54063539 173.76953125 481.203125 C173.10953125 481.203125 172.44953125 481.203125 171.76953125 481.203125 C173.26489728 476.09329136 175.53208332 471.77142667 178.08203125 467.140625 C197.07071279 434.127191 197.07071279 434.127191 206.76953125 398.203125 C206.47933105 398.7794165 206.18913086 399.35570801 205.89013672 399.94946289 C188.1748557 434.94870234 166.37608693 467.66471805 141.76953125 498.203125 C141.02316406 499.13253906 140.27679688 500.06195312 139.5078125 501.01953125 C130.45679995 512.18298839 121.06342969 523.02433446 111.27954102 533.54956055 C110.19577479 534.73635903 109.12768545 535.9375456 108.07006836 537.14770508 C100.78539133 545.43006421 92.9558801 553.16759807 85.14916992 560.95385742 C82.70571203 563.39194132 80.26766318 565.83534289 77.83007812 568.27929688 C76.25683104 569.85188333 74.68327388 571.42415964 73.109375 572.99609375 C72.39144272 573.71605026 71.67351044 574.43600677 70.93382263 575.17778015 C66.94034399 579.15304406 62.8564418 582.96081886 58.57843018 586.62890625 C56.11192253 588.77541788 53.75743761 591.03071337 51.39379883 593.2890625 C25.77013519 617.70767849 25.77013519 617.70767849 12.39453125 619.015625 C-0.05723658 617.9817237 -10.49289465 608.25389131 -19.23046875 600.203125 C-20.31241095 599.21865213 -21.39444247 598.2342774 -22.4765625 597.25 C-25.20049484 594.75943081 -27.90077066 592.24446176 -30.59667969 589.72363281 C-32.23975323 588.19448427 -33.8932634 586.677533 -35.55078125 585.1640625 C-41.78254506 579.46744647 -47.83016166 573.64497701 -53.76171875 567.63671875 C-55.79546702 565.63193208 -57.85115466 563.77808885 -60.04296875 561.953125 C-64.74519572 557.94752425 -68.83076848 553.36313599 -73.01123047 548.82885742 C-76.32859953 545.23228615 -79.68035656 541.69948974 -83.16796875 538.265625 C-87.06894392 534.40743932 -90.66298358 530.36858863 -94.23046875 526.203125 C-95.1735165 525.12285677 -96.11762116 524.04351074 -97.0625 522.96484375 C-102.95836045 516.22268318 -108.77161887 509.41704229 -114.48046875 502.515625 C-115.02195557 501.86408447 -115.56344238 501.21254395 -116.12133789 500.54125977 C-116.65750732 499.88955811 -117.19367676 499.23785645 -117.74609375 498.56640625 C-118.30949463 497.89786621 -118.87289551 497.22932617 -119.45336914 496.54052734 C-121.23046875 494.203125 -121.23046875 494.203125 -123.03686523 491.05712891 C-126.49691501 485.1577119 -126.49691501 485.1577119 -132.08587646 481.54458618 C-137.29284597 480.54565668 -142.52039551 480.76854398 -147.79296875 480.953125 C-149.38994219 480.96511891 -150.9869662 480.97167558 -152.58398438 480.97265625 C-156.46956293 480.98676288 -160.34706257 481.07451642 -164.23046875 481.203125 C-164.21226074 482.14857178 -164.19405273 483.09401855 -164.17529297 484.06811523 C-164.26785645 489.32744108 -167.14694191 493.03778428 -170.72265625 496.75390625 C-176.25896954 501.61610885 -181.277042 502.67559913 -188.44921875 502.51171875 C-194.46900254 501.8437933 -198.55165972 499.23358975 -202.60546875 494.828125 C-206.02622564 490.48711014 -207.23046875 486.74649212 -207.23046875 481.203125 C-212.51046875 481.203125 -217.79046875 481.203125 -223.23046875 481.203125 C-223.29912699 448.37882344 -223.3521109 415.55454283 -223.38366474 382.73018569 C-223.38741619 378.84185219 -223.39129922 374.95351883 -223.39526367 371.06518555 C-223.39644407 369.9041965 -223.39644407 369.9041965 -223.39764831 368.71975314 C-223.41064932 356.24005759 -223.43427339 343.76040412 -223.46192714 331.28073341 C-223.49012994 318.44480446 -223.50667618 305.60889733 -223.51273423 292.77293867 C-223.5168201 284.8729494 -223.52965289 276.97307917 -223.55421815 269.07312661 C-223.57217495 262.98259397 -223.57379739 256.89214926 -223.56979179 250.80159378 C-223.57060751 248.32713661 -223.57644384 245.85267432 -223.58808517 243.3782444 C-223.88691191 176.49945857 -201.10729637 115.23508708 -153.91796875 67.578125 C-146.10694028 59.7890569 -138.17646639 52.64242414 -129.23046875 46.203125 C-128.08382003 45.35135699 -126.9380015 44.49847037 -125.79296875 43.64453125 C-118.17918793 38.0246838 -110.2931481 32.96576626 -102.08203125 28.26464844 C-100.31138465 27.24951508 -98.55186899 26.21504014 -96.79296875 25.1796875 C-68.22629475 8.80291177 -32.87616871 0.16392456 0 0 Z M-124.23046875 118.203125 C-145.49044546 142.07397604 -158.46696767 173.05140169 -164.23046875 204.203125 C-164.45734375 205.42515625 -164.68421875 206.6471875 -164.91796875 207.90625 C-170.89126742 246.8986163 -162.64097083 285.74267991 -144.23046875 320.203125 C-143.68777344 321.22921875 -143.14507812 322.2553125 -142.5859375 323.3125 C-134.7716002 337.38210974 -124.43617452 349.72916311 -113.23046875 361.203125 C-112.690271 361.76596191 -112.15007324 362.32879883 -111.59350586 362.90869141 C-82.37628741 392.88035475 -38.16152107 411.49091389 3.53125 412.50390625 C6.17449077 412.52317113 8.81412632 412.5301769 11.45703125 412.515625 C12.15130219 412.51380219 12.84557312 412.51197937 13.56088257 412.51010132 C62.32019444 412.29575779 106.58345636 391.90736574 141.0546875 357.93652344 C151.63678168 347.23993051 162.16244904 334.22083051 167.76953125 320.203125 C173.04953125 319.873125 178.32953125 319.543125 183.76953125 319.203125 C181.0222877 316.45588145 179.0724382 316.71905523 175.23046875 316.3515625 C173.92851562 316.22265625 172.6265625 316.09375 171.28515625 315.9609375 C169.90496561 315.83314207 168.52475702 315.70554041 167.14453125 315.578125 C165.75643134 315.44352137 164.36840906 315.30811454 162.98046875 315.171875 C159.57750589 314.84103139 156.17395882 314.51847851 152.76953125 314.203125 C152.31352539 314.92830322 151.85751953 315.65348145 151.38769531 316.40063477 C128.22690126 353.04950853 94.89001847 379.02076737 52.76953125 390.203125 C51.97321289 390.41630371 51.17689453 390.62948242 50.35644531 390.84912109 C27.48115556 396.66245047 -0.32126031 396.93622985 -23.23046875 391.203125 C-23.93091309 391.04215332 -24.63135742 390.88118164 -25.35302734 390.71533203 C-49.03750722 385.2472585 -71.92882919 374.3137232 -90.23046875 358.203125 C-91.04515625 357.49671875 -91.85984375 356.7903125 -92.69921875 356.0625 C-95.2469994 353.81353313 -97.74532755 351.52103447 -100.23046875 349.203125 C-101.04386719 348.45546875 -101.85726562 347.7078125 -102.6953125 346.9375 C-130.54800787 320.36083649 -146.64955319 280.33672465 -148.23046875 242.203125 C-148.28332031 240.99140625 -148.33617187 239.7796875 -148.390625 238.53125 C-149.53576069 198.70976547 -135.77838397 157.7518783 -108.85546875 128.140625 C-108.06398437 127.30402344 -107.2725 126.46742188 -106.45703125 125.60546875 C-104.19252232 123.2230087 -104.19252232 123.2230087 -102.15625 120.59375 C-79.95889338 93.03841074 -39.19256647 77.93476082 -5.23046875 73.953125 C37.26299213 69.59693769 80.31254606 81.39979967 113.76953125 108.203125 C117.92858472 111.70502553 121.8598743 115.42732221 125.76953125 119.203125 C126.55972656 119.94175781 127.34992188 120.68039063 128.1640625 121.44140625 C153.94741864 146.14104864 171.31134508 184.37242943 172.9465332 220.06689453 C172.97257184 221.40647819 172.99278051 222.74618512 173.0078125 224.0859375 C173.02263924 225.17813095 173.02263924 225.17813095 173.0377655 226.29238892 C173.31633498 252.15621556 169.61020655 273.77223409 160.76953125 298.203125 C156.38208199 297.59705093 152.54466854 296.48161379 148.39453125 294.953125 C96.82387296 277.09921591 42.67684172 286.55423908 -8.40625 300.73217773 C-34.45355692 307.95778354 -63.37163751 311.50466448 -88.328125 298.6015625 C-101.08478965 290.91597912 -109.27882884 280.43228058 -113.66796875 266.140625 C-117.79340124 248.69236722 -115.63524061 230.97230601 -107.109375 215.1171875 C-98.87851987 202.35166166 -87.87091316 193.89493934 -72.92919922 190.28515625 C-55.24858913 186.71515225 -35.61900448 187.97440609 -19.9140625 197.33203125 C-5.25290566 207.55429344 2.89331635 220.96986472 9.76953125 237.203125 C9.10953125 237.203125 8.44953125 237.203125 7.76953125 237.203125 C7.51945313 236.63851562 7.269375 236.07390625 7.01171875 235.4921875 C-1.23049572 220.30370423 -18.72001765 209.29571239 -34.80078125 204.03515625 C-49.90959622 200.36980592 -63.65236949 203.05196291 -77.15625 210.25 C-85.25401104 215.39470206 -89.07291748 222.70136927 -92.48046875 231.390625 C-94.86766457 243.52553708 -93.0677274 255.41970775 -86.54296875 266.015625 C-78.45576782 277.03443627 -67.61683981 283.07248444 -54.23046875 285.203125 C-32.96811665 287.1975513 -12.16025922 283.47713207 8.72851562 280.02441406 C15.95573575 278.83638265 23.20074972 277.77062992 30.44793701 276.7124939 C32.57737213 276.40046588 34.70598506 276.08331211 36.83447266 275.76489258 C38.77845947 275.47714966 38.77845947 275.47714966 40.76171875 275.18359375 C41.8791748 275.01754639 42.99663086 274.85149902 44.14794922 274.68041992 C52.02774582 273.64192711 59.78976782 273.03953832 67.73828125 273 C68.65806763 272.99429993 69.577854 272.98859985 70.5255127 272.98272705 C72.46165848 272.97334578 74.39781975 272.96677071 76.33398438 272.96289062 C79.23467308 272.95324096 82.13463473 272.92217384 85.03515625 272.890625 C101.08749709 272.79787997 116.01962742 274.67332496 131.39453125 279.390625 C132.77511719 279.79958008 132.77511719 279.79958008 134.18359375 280.21679688 C136.38195203 280.86943449 138.57698445 281.53127859 140.76953125 282.203125 C154.14563167 252.59278304 152.26200305 216.63599672 141.65820312 186.53271484 C139.22372111 180.15089412 136.07677956 174.16704239 132.76953125 168.203125 C131.90328125 166.58470703 131.90328125 166.58470703 131.01953125 164.93359375 C126.99890574 157.68343803 122.2021181 151.44737169 116.76953125 145.203125 C116.08246094 144.38199219 115.39539063 143.56085938 114.6875 142.71484375 C91.48326092 115.72215747 57.92905529 100.33575169 22.76953125 97.203125 C-13.54390262 94.76905959 -48.66454004 106.53719906 -76.23046875 130.203125 C-77.13539063 130.97398437 -78.0403125 131.74484375 -78.97265625 132.5390625 C-104.78638072 155.20651585 -120.6830355 188.3130405 -123.91796875 222.390625 C-124.04140257 224.326993 -124.14607313 226.26466316 -124.23046875 228.203125 C-124.27171875 229.11964844 -124.31296875 230.03617188 -124.35546875 230.98046875 C-125.17004371 268.09454053 -110.509968 302.45939581 -85.23046875 329.203125 C-84.48410156 330.01394531 -83.73773438 330.82476562 -82.96875 331.66015625 C-59.5296333 356.2615432 -25.88664531 369.64451769 7.76953125 371.203125 C8.52621094 371.244375 9.28289062 371.285625 10.0625 371.328125 C47.35215477 372.3550346 82.56529075 356.54877571 109.5390625 331.47265625 C123.88418807 317.39406563 123.88418807 317.39406563 131.76953125 300.203125 C136.00073197 301.11055775 140.22905011 302.03081763 144.45703125 302.953125 C145.63587891 303.20578125 146.81472656 303.4584375 148.02929688 303.71875 C155.22456179 305.29579436 162.22587731 307.16947828 169.23364258 309.44238281 C171.64755111 310.29890481 171.64755111 310.29890481 173.76953125 310.203125 C193.66534807 266.9544168 196.72385151 217.79797725 180.25537109 172.85888672 C172.70320567 153.39803164 162.59775113 134.91256913 148.76953125 119.203125 C147.67511719 117.94435547 147.67511719 117.94435547 146.55859375 116.66015625 C144.33092569 114.13937397 142.0624697 111.66460423 139.76953125 109.203125 C139.04636719 108.41421875 138.32320313 107.6253125 137.578125 106.8125 C126.10969372 94.78131998 112.30906699 85.15692749 97.76953125 77.203125 C97.14788086 76.85942871 96.52623047 76.51573242 95.88574219 76.16162109 C20.71514879 35.10869066 -67.95225733 57.27887088 -124.23046875 118.203125 Z M208.76953125 392.203125 C209.76953125 394.203125 209.76953125 394.203125 209.76953125 394.203125 Z " fill="#0E79AD" transform="translate(242.23046875,91.796875)"/>
<path d="M0 0 C154.44 0 308.88 0 468 0 C474.27 16.83 480.54 33.66 487 51 C490.96 61.395 490.96 61.395 495 72 C495.65548676 76.74707027 496.03964863 80.46948124 495.90820312 85.12426758 C495.90937134 86.26850189 495.91053955 87.41273621 495.91174316 88.59164429 C495.90628384 92.27729099 495.84461589 95.95946896 495.78125 99.64453125 C495.76628816 102.2376682 495.75491985 104.83082811 495.74694824 107.42399597 C495.71979388 113.49068133 495.6571177 119.55599021 495.57615232 125.62216347 C495.48583242 132.54375111 495.44252455 139.46540454 495.40258884 146.38743746 C495.31961268 160.592258 495.1794711 174.79608629 495 189 C488.61516603 189.33132318 482.23256183 189.55791638 475.84106445 189.71411133 C473.67062596 189.77924549 471.50075278 189.86779014 469.33227539 189.98071289 C451.779526 190.87144943 451.779526 190.87144943 447.16073608 187.7616272 C443.80935953 184.33902125 441.98780171 180.33299708 440 176 C438.77933647 174.31662088 437.51631904 172.66188259 436.1875 171.0625 C435.53910156 170.26972656 434.89070313 169.47695312 434.22265625 168.66015625 C433.48917969 167.78230469 432.75570313 166.90445313 432 166 C431.55253418 165.4622998 431.10506836 164.92459961 430.64404297 164.37060547 C421.82406087 153.80490976 412.60171684 143.82006393 402 135 C401.50999512 134.58556641 401.01999023 134.17113281 400.51513672 133.74414062 C362.46878334 101.6979695 316.11574939 82.53515169 267 76 C266.2570166 75.896875 265.5140332 75.79375 264.74853516 75.6875 C256.0029629 74.63494886 247.17050096 74.75615085 238.375 74.75 C237.50762207 74.74932526 236.64024414 74.74865051 235.74658203 74.74795532 C221.63401481 74.76535215 207.91205713 75.46435447 194 78 C193.08009277 78.16097168 192.16018555 78.32194336 191.21240234 78.48779297 C142.53405375 87.24434401 97.57165359 110.81635105 62 145 C61.40541992 145.56734863 60.81083984 146.13469727 60.19824219 146.71923828 C53.49294025 153.14961939 46.95372852 159.65002465 41.25 167 C40.04231209 168.54890678 40.04231209 168.54890678 38.81022644 170.12910461 C36.91340484 172.64244635 35.32039409 175.15301059 33.84350586 177.93188477 C28.2264753 187.89584292 28.2264753 187.89584292 22.7008667 189.7868042 C16.25143864 190.86864475 9.80285577 190.3699003 3.3125 189.9375 C1.33944754 189.86214317 -0.63388268 189.79372207 -2.60742188 189.73242188 C-7.41188149 189.56820229 -12.20284562 189.31022256 -17 189 C-17.49256845 170.37726733 -17.81758553 151.7532164 -18 133.125 C-18.01032391 132.09696093 -18.01032391 132.09696093 -18.02085638 131.0481534 C-18.35867462 96.39393474 -18.44252488 62.35020699 -9.0625 28.6875 C-8.87320923 28.00710915 -8.68391846 27.32671829 -8.4888916 26.62570953 C-6.24982508 18.66173264 -3.75673104 10.79987997 -1 3 C-0.67 2.01 -0.34 1.02 0 0 Z M347 33 C347 38.61 347 44.22 347 50 C352.61 50 358.22 50 364 50 C364 44.39 364 38.78 364 33 C358.39 33 352.78 33 347 33 Z M381 33 C381 38.61 381 44.22 381 50 C386.61 50 392.22 50 398 50 C398 44.39 398 38.78 398 33 C392.39 33 386.78 33 381 33 Z M416 33 C416 38.61 416 44.22 416 50 C421.61 50 427.22 50 433 50 C433 44.39 433 38.78 433 33 C427.39 33 421.78 33 416 33 Z " fill="#25AAE1" transform="translate(17,0)"/>
<path d="M0 0 C3.00639281 2.68838157 5.91271066 5.47057706 8.8125 8.2734375 C9.67617188 9.08554688 10.53984375 9.89765625 11.4296875 10.734375 C37.78500637 36.10444831 56.31162105 75.26294972 57.02778625 112.10678101 C57.0353746 112.78310577 57.04296295 113.45943054 57.05078125 114.15625 C57.06560799 115.24844345 57.06560799 115.24844345 57.08073425 116.36270142 C57.31311923 137.93852161 55.38818389 156.91340253 48.8125 177.5859375 C48.48056641 178.63813477 48.14863281 179.69033203 47.80664062 180.77441406 C47.31454102 182.22219238 47.31454102 182.22219238 46.8125 183.69921875 C46.52375 184.55942627 46.235 185.41963379 45.9375 186.3059082 C44.8125 188.2734375 44.8125 188.2734375 42.90527344 189.12426758 C39.3889504 189.3749061 36.30413602 187.86480857 33.0625 186.6484375 C-19.19044228 168.28536828 -73.4552271 177.39558606 -125.36328125 191.80249023 C-151.45699016 199.04096809 -180.22405236 202.50729273 -205.25 189.70703125 C-218.36849526 181.85415422 -227.11978071 170.84502393 -231.625 156.2109375 C-235.75238969 138.75440187 -233.58185462 121.05575189 -225.0703125 105.1875 C-215.87530048 90.95621583 -203.05969478 82.29530449 -186.515625 78.69140625 C-168.42151994 76.41902451 -149.53648401 77.54925653 -134.1875 88.2734375 C-121.64907987 98.11003032 -112.94088691 110.35975613 -107.1875 125.2734375 C-107.1875 125.9334375 -107.1875 126.5934375 -107.1875 127.2734375 C-107.8475 127.2734375 -108.5075 127.2734375 -109.1875 127.2734375 C-110.38777784 125.85957639 -111.52178348 124.38927064 -112.625 122.8984375 C-124.21979061 108.13384802 -139.98992315 97.0012077 -158.69140625 93.64453125 C-172.72241264 92.15520655 -185.36492903 95.85746116 -197.1875 103.2734375 C-204.33445825 109.24721581 -208.62482254 119.00725665 -209.4453125 128.14453125 C-209.91420556 141.16412845 -206.26919333 152.58474188 -197.41015625 162.203125 C-184.65423988 174.35906984 -168.27527829 174.97773687 -151.62890625 174.72265625 C-137.04028892 174.26913497 -122.59883933 171.47000591 -108.22851562 169.09472656 C-101.0012955 167.90669515 -93.75628153 166.84094242 -86.50909424 165.7828064 C-84.37965912 165.47077838 -82.25104619 165.15362461 -80.12255859 164.83520508 C-78.17857178 164.54746216 -78.17857178 164.54746216 -76.1953125 164.25390625 C-75.07785645 164.08785889 -73.96040039 163.92181152 -72.80908203 163.75073242 C-64.92928543 162.71223961 -57.16726343 162.10985082 -49.21875 162.0703125 C-48.29896362 162.06461243 -47.37917725 162.05891235 -46.43151855 162.05303955 C-44.49537277 162.04365828 -42.5592115 162.03708321 -40.62304688 162.03320312 C-37.72235817 162.02355346 -34.82239652 161.99248634 -31.921875 161.9609375 C-15.86953416 161.86819247 -0.93740383 163.74363746 14.4375 168.4609375 C15.81808594 168.86989258 15.81808594 168.86989258 17.2265625 169.28710938 C19.42492078 169.93974699 21.6199532 170.60159109 23.8125 171.2734375 C35.23583421 136.82282879 35.42745119 98.75113564 18.875 65.7734375 C17.55719938 63.25253604 16.1919543 60.7609893 14.8125 58.2734375 C13.94625 56.65501953 13.94625 56.65501953 13.0625 55.00390625 C9.04199141 47.75396135 4.2456517 41.51695759 -1.1875 35.2734375 C-1.88617188 34.44070312 -2.58484375 33.60796875 -3.3046875 32.75 C-26.1422343 6.23167642 -59.68535432 -8.6525066 -94.1875 -11.7265625 C-130.56259467 -14.164761 -165.54224083 -2.35069307 -193.1875 21.2734375 C-194.01894531 21.97082031 -194.85039062 22.66820312 -195.70703125 23.38671875 C-221.25807107 45.48385457 -236.70779638 79.09683365 -239.875 112.4609375 C-239.99843382 114.3973055 -240.10310438 116.33497566 -240.1875 118.2734375 C-240.22875 119.18996094 -240.27 120.10648438 -240.3125 121.05078125 C-241.12754374 158.18621148 -226.45334419 192.50050787 -201.1875 219.2734375 C-200.51460938 220.01078125 -199.84171875 220.748125 -199.1484375 221.5078125 C-176.15589476 245.79207113 -142.18485442 258.74534004 -109.1875 260.2734375 C-108.43082031 260.3146875 -107.67414063 260.3559375 -106.89453125 260.3984375 C-72.93910961 261.33352656 -41.28181566 248.25733779 -15.1875 227.2734375 C-14.29933594 226.56058594 -13.41117188 225.84773438 -12.49609375 225.11328125 C-1.44064043 215.74979296 8.00713123 203.03350394 14.8125 190.2734375 C22.0122863 190.80606727 28.87062643 191.97391853 35.875 193.7109375 C36.89271484 193.96246582 37.91042969 194.21399414 38.95898438 194.47314453 C50.99814175 197.61515159 62.40071234 202.36811551 73.8125 207.2734375 C73.8125 207.6034375 73.8125 207.9334375 73.8125 208.2734375 C65.86595395 208.48096427 58.14047758 207.66944058 50.25 206.7734375 C48.95513672 206.63035156 47.66027344 206.48726562 46.32617188 206.33984375 C43.1544365 205.98872913 39.98326972 205.63315069 36.8125 205.2734375 C35.55799423 206.99305238 34.30423628 208.71321282 33.05078125 210.43359375 C32.35251221 211.39144775 31.65424316 212.34930176 30.93481445 213.33618164 C28.93040965 216.11025207 26.96132843 218.90632736 25 221.7109375 C20.41231272 228.02352295 15.18511271 233.63260056 9.8125 239.2734375 C9.21824219 239.92054688 8.62398438 240.56765625 8.01171875 241.234375 C-10.77169933 261.08979957 -38.0624323 274.49930459 -64.1875 281.2734375 C-64.97801758 281.48371582 -65.76853516 281.69399414 -66.58300781 281.91064453 C-89.46532435 287.73029129 -117.26918023 288.00882249 -140.1875 282.2734375 C-140.88794434 282.11246582 -141.58838867 281.95149414 -142.31005859 281.78564453 C-165.9962714 276.31717092 -188.8830484 265.38264622 -207.1875 249.2734375 C-207.99058594 248.57863281 -208.79367188 247.88382812 -209.62109375 247.16796875 C-212.1831746 244.90966035 -214.6921531 242.60521746 -217.1875 240.2734375 C-218.074375 239.45230469 -218.96125 238.63117188 -219.875 237.78515625 C-248.04805485 210.77263917 -264.57946793 171.06112006 -266.1875 132.2734375 C-266.24035156 131.06171875 -266.29320312 129.85 -266.34765625 128.6015625 C-267.53592718 87.2800728 -252.72286749 45.76945828 -224.36328125 15.6015625 C-222.66816189 13.78775435 -221.09503465 11.9711404 -219.5625 10.0234375 C-194.41492323 -19.09480929 -152.86149381 -34.73258833 -115.41113281 -37.58154297 C-74.10836317 -40.27520186 -31.42786532 -27.3632466 0 0 Z " fill="#24A9E0" transform="translate(359.1875,201.7265625)"/>
<path d="M0 0 C14.52 0 29.04 0 44 0 C52.68117975 34.3774718 61.06127576 68.81996995 69.34667778 103.2945385 C70.25762172 107.08426021 71.16942714 110.87377443 72.08128357 114.66327667 C72.71910448 117.31601649 73.35538247 119.9691232 73.99157715 122.62225342 C74.37737284 124.22645692 74.76323331 125.83064485 75.14916992 127.43481445 C75.32311122 128.16222619 75.49705252 128.88963793 75.67626476 129.63909245 C76.35884492 132.47079255 77.07828886 135.23486658 78 138 C78.13730719 137.33131362 78.27461437 136.66262724 78.41608238 135.97367764 C81.76012913 119.68910021 85.10714946 103.40513708 88.45746422 87.12184811 C90.07759119 79.24730205 91.69671799 71.37255284 93.31347656 63.49731445 C94.72295042 56.63177385 96.13431489 49.76662509 97.54793322 42.90193659 C98.2960846 39.26849801 99.04329988 35.63487269 99.78824997 32.00077629 C100.62071533 27.93993382 101.45740122 23.87997193 102.29443359 19.82006836 C102.53971298 18.62028854 102.78499237 17.42050873 103.03770447 16.18437195 C103.3826017 14.5165567 103.3826017 14.5165567 103.73446655 12.81504822 C103.93173025 11.85546172 104.12899395 10.89587523 104.33223534 9.90721035 C105.09785517 6.57397332 106.06044399 3.28844603 107 0 C122.18 0 137.36 0 153 0 C155.91293952 14.3015076 158.82550489 28.60309128 161.73742199 42.90480709 C163.09009407 49.54832092 164.44292177 56.19180299 165.79614258 62.83520508 C167.10628879 69.26722585 168.41599864 75.69933534 169.72542763 82.13150215 C170.22074709 84.56423559 170.71621402 86.996939 171.21184349 89.4296093 C174.50888495 105.61294658 177.77259196 121.80262745 181 138 C182.9796605 130.08213815 182.9796605 130.08213815 184.95840454 122.16404724 C186.50878894 115.95944646 188.06071559 109.75524753 189.61868477 103.5525465 C190.54621867 99.85948777 191.47260755 96.16614249 192.3984375 92.47265625 C192.58685589 91.72104784 192.77527428 90.96943943 192.96940231 90.19505501 C195.65527655 79.47201811 198.28366027 68.73627441 200.87247467 57.98942184 C201.93439275 53.59081735 203.0070035 49.19480726 204.08006668 44.79891014 C205.10579998 40.59150625 206.11383263 36.38035184 207.10950661 32.16574001 C207.88243954 28.91773235 208.68163367 25.67628585 209.4765625 22.43359375 C209.74481842 21.27282822 210.01307434 20.11206268 210.28945923 18.91612244 C211.91979767 12.38698072 213.76502793 7.43004595 219 3 C226.49569998 -1.31703282 235.10759416 -0.33394343 243.5 -0.1875 C245.00519497 -0.1724286 246.51040451 -0.15874453 248.015625 -0.14648438 C251.67738941 -0.11366687 255.33860021 -0.06201989 259 0 C258.36872176 7.47695646 256.33299924 14.43924658 254.25317383 21.62475586 C253.8614425 22.99454384 253.47023704 24.3644823 253.07951355 25.73455811 C252.01786843 29.45160543 250.94890014 33.16651087 249.87862611 36.88108134 C248.74375169 40.82471971 247.61575487 44.77032465 246.48698425 48.7157135 C244.33391366 56.23746001 242.1748109 63.75746089 240.01349801 71.27684265 C237.61039612 79.63839385 235.21354627 88.00173193 232.8174746 96.36529994 C229.12878861 109.24052206 225.43672892 122.11477202 221.74147582 134.98811078 C217.02860742 151.40682742 212.3271953 167.82877692 207.63671875 184.25390625 C207.33869669 185.29750746 207.04067463 186.34110867 206.7336216 187.41633415 C205.15519484 192.94406522 203.57748713 198.47200058 202 204 C188.47 204 174.94 204 161 204 C159.72220597 200.16661792 158.66317435 196.8177747 157.88200378 192.92900085 C157.68454056 191.95559753 157.48707733 190.98219421 157.28363037 189.97929382 C157.07425842 188.92740372 156.86488647 187.87551361 156.64916992 186.79174805 C156.42282364 185.67035431 156.19647736 184.54896057 155.96327209 183.39358521 C155.21539197 179.68367991 154.47291208 175.97271556 153.73046875 172.26171875 C153.20754654 169.66210902 152.68432775 167.06256071 152.16072083 164.46308899 C150.92058279 158.30297272 149.68434164 152.14208112 148.44948894 145.98090345 C147.06380768 139.06817412 145.67373714 132.15633 144.28330076 125.24455583 C139.50682194 101.49944949 134.74701333 77.75101414 130 54 C125.86723437 73.11796546 121.86176965 92.25835707 117.9453125 111.421875 C117.39363659 114.11717867 116.84157265 116.81240282 116.28952026 119.50762939 C115.00309932 125.78928083 113.71795699 132.07119307 112.43332088 138.35320973 C110.96628477 145.52684798 109.49775185 152.70017956 108.02911782 159.87349081 C105.01779297 174.58199623 102.00846515 189.29090933 99 204 C85.47 204 71.94 204 58 204 C52.12970584 184.96601591 46.59713106 165.84502927 41.11221313 146.6975708 C39.85814966 142.32140478 38.60185657 137.94587897 37.34570312 133.5703125 C35.52709995 127.2350009 33.70902681 120.89953776 31.89171982 114.56385422 C27.44618591 99.06565567 22.99211848 83.5699145 18.53497124 68.07505226 C17.20563776 63.45373164 15.87682129 58.83226291 14.54855919 54.21063423 C13.72150594 51.33329553 12.89399027 48.4560899 12.06644821 45.57889175 C11.47892461 43.53538896 10.89210561 41.49168474 10.30532837 39.44796753 C8.51312738 33.21185316 6.70405287 26.98138965 4.85546875 20.76171875 C4.5248645 19.64539063 4.19426025 18.5290625 3.8536377 17.37890625 C3.24211036 15.31889199 2.62613766 13.2601897 2.00476074 11.203125 C1.73828735 10.30464844 1.47181396 9.40617188 1.19726562 8.48046875 C0.96446899 7.70598389 0.73167236 6.93149902 0.49182129 6.13354492 C0 4 0 4 0 0 Z " fill="#25AAE1" transform="translate(1249,229)"/>
<path d="M0 0 C16.62528456 14.00446084 23.65881224 32.4097355 26.71484375 53.49609375 C26.71484375 54.48609375 26.71484375 55.47609375 26.71484375 56.49609375 C22.60726412 56.57098651 18.49995615 56.62504129 14.3918457 56.66088867 C12.99822047 56.67585313 11.60464131 56.69623226 10.21118164 56.72241211 C-7.78824866 57.05178812 -7.78824866 57.05178812 -14.97265625 51.37109375 C-18.01986343 47.58267401 -20.62966101 43.56423096 -23.28515625 39.49609375 C-29.71818461 29.69755736 -37.30977423 25.75168714 -48.5234375 22.93359375 C-65.3461779 20.26860517 -81.59046152 23.21235165 -95.53515625 33.08984375 C-108.88549335 43.810569 -113.25978804 61.68313538 -115.05810547 77.97265625 C-117.0769936 100.41053553 -114.46476728 124.17123353 -100.28515625 142.49609375 C-92.39175773 151.24162052 -81.67125316 156.63039042 -69.88696289 157.71728516 C-55.50654688 158.37214375 -42.34082581 157.60432574 -30.49609375 148.51953125 C-22.25698075 140.97914162 -19.49107011 132.0108784 -15.28515625 121.49609375 C-1.42515625 121.49609375 12.43484375 121.49609375 26.71484375 121.49609375 C23.46943391 145.83666753 16.17978197 165.55298679 -3.53515625 180.80859375 C-27.42603931 197.10861467 -58.86442646 199.9495099 -86.99609375 195.8125 C-91.2134029 195.01406032 -95.21390132 193.85458942 -99.28515625 192.49609375 C-100.2582373 192.18260986 -100.2582373 192.18260986 -101.25097656 191.86279297 C-122.61118061 184.82878399 -137.19830606 170.15136485 -147.78125 150.75390625 C-153.57068454 138.88646722 -156.86187568 125.57041525 -158.28515625 112.49609375 C-158.39601563 111.49835938 -158.506875 110.500625 -158.62109375 109.47265625 C-161.76449471 75.74481354 -158.32576211 38.97392247 -136.16015625 11.93359375 C-105.88423804 -23.57940755 -36.89790853 -29.14165835 0 0 Z " fill="#0F7AAE" transform="translate(723.28515625,240.50390625)"/>
<path d="M0 0 C27 0 27 0 36 6 C39.75392307 11.44318845 41.12168988 15.6636946 41.13371277 22.16352844 C41.14011024 23.72953545 41.14011024 23.72953545 41.14663696 25.32717896 C41.14618378 26.46742523 41.14573059 27.60767151 41.14526367 28.7824707 C41.14862228 29.98791031 41.1519809 31.19334991 41.15544128 32.43531799 C41.16331671 35.74178722 41.16661929 39.04819362 41.16725707 42.3546679 C41.16796902 44.42656932 41.17010628 46.49846421 41.17275429 48.570364 C41.18201099 55.81717723 41.18608952 63.06397207 41.18530273 70.31079102 C41.1847046 77.03276241 41.19520327 83.75465285 41.2110464 90.47660381 C41.22420435 96.26880684 41.22948307 102.06098374 41.22884732 107.85320157 C41.22859438 111.3027046 41.23133039 114.75213596 41.24202538 118.20162392 C41.3577786 163.41273323 41.3577786 163.41273323 29 181 C28.56042969 181.63550781 28.12085938 182.27101563 27.66796875 182.92578125 C16.57129314 197.34826165 -5.39502126 203.70928372 -22.5625 206.25 C-43.46798241 208.66881615 -65.91309291 206.1523251 -83.26171875 193.328125 C-99.10829408 180.30649094 -105.12031438 160.23532381 -107.3984375 140.55859375 C-107.67692709 137.371017 -107.8678341 134.19676274 -108 131 C-108.04125 130.14664063 -108.0825 129.29328125 -108.125 128.4140625 C-108.71426982 104.47497605 -103.48627339 79.16037621 -87 61 C-86.38511719 60.30519531 -85.77023437 59.61039062 -85.13671875 58.89453125 C-75.81044305 48.93279789 -64.12421949 43.35400031 -50.51171875 42.6171875 C-34.24499049 42.12567293 -20.86534287 43.91591875 -8.484375 55.31640625 C-2.32511556 61.34976888 -2.32511556 61.34976888 -1 64 C-0.67 42.88 -0.34 21.76 0 0 Z M-56 88 C-67.16087599 102.97464267 -68.18706471 120.90768379 -65.72265625 138.7890625 C-64.02411949 149.49629426 -59.65890004 159.59630798 -51 166.4375 C-43.78729651 171.37322526 -35.57467345 172.78635929 -27 171.375 C-18.59780198 169.38192047 -12.53392124 165.6395317 -7.5 158.56640625 C1.47460524 143.21141759 1.59739933 122.96500821 -2 106 C-4.87721688 95.40409554 -9.41001748 88.2232133 -18.65625 82.2265625 C-31.03122851 75.75032374 -46.30163171 77.86079679 -56 88 Z " fill="#0F7AAE" transform="translate(1202,229)"/>
<path d="M0 0 C28.17016317 0 28.17016317 0 35.0234375 5.67578125 C35.46945312 6.21589844 35.91546875 6.75601563 36.375 7.3125 C36.83648438 7.84488281 37.29796875 8.37726563 37.7734375 8.92578125 C41.34933561 14.97292106 41.32895471 21.48360907 41.4140625 28.30859375 C41.43342865 29.27531509 41.4527948 30.24203644 41.4727478 31.23805237 C41.53219191 34.30444713 41.57878769 37.37088016 41.625 40.4375 C41.66321217 42.52540636 41.70226576 44.6132975 41.7421875 46.70117188 C41.83786438 51.80065662 41.92202455 56.90021511 42 62 C42.78608643 61.04552979 43.57217285 60.09105957 44.38208008 59.10766602 C52.85720491 48.81712549 65.46727276 43.68361308 78.45166016 42.35864258 C95.41705723 40.94115231 110.65869736 45.16222429 123.91796875 56.17578125 C124.60503906 56.77777344 125.29210938 57.37976563 126 58 C126.67675781 58.57105469 127.35351562 59.14210938 128.05078125 59.73046875 C141.38067877 71.86973465 145.78217352 88.58079666 147 106 C147.11924944 109.41632555 147.12754087 112.82674443 147.11352539 116.24487305 C147.11367142 117.20232925 147.11381744 118.15978546 147.1139679 119.14625549 C147.11327881 122.26810074 147.1055341 125.3898841 147.09765625 128.51171875 C147.09578849 130.69318102 147.09436628 132.87464372 147.09336853 135.05610657 C147.0895715 140.76554547 147.07976558 146.47495846 147.06866455 152.18438721 C147.05838959 158.02331187 147.05385793 163.86224076 147.04882812 169.70117188 C147.0381405 181.13412773 147.02056683 192.56705765 147 204 C133.47 204 119.94 204 106 204 C105.96261719 197.42578125 105.92523437 190.8515625 105.88671875 184.078125 C105.85641594 179.89450585 105.82525291 175.71092805 105.79101562 171.52734375 C105.73684386 164.89797131 105.68572812 158.26868067 105.65356445 151.63916016 C105.62741122 146.28977465 105.58692481 140.94066636 105.53681374 135.59145355 C105.52022596 133.55833148 105.50866163 131.52516156 105.50238609 129.49198151 C105.45015948 114.11620475 105.10807413 100.48881814 95 88 C88.9007089 82.0205378 82.73493671 79.9748943 74.25 79.625 C66.76870758 79.7656258 59.67141889 81.69976129 53.625 86.25 C44.52336757 95.7850435 41.88138909 107.27395936 41.79467773 120.10473633 C41.78477814 121.01254852 41.77487854 121.92036072 41.76467896 122.85568237 C41.73316365 125.84777239 41.70834599 128.83987828 41.68359375 131.83203125 C41.66301561 133.90997219 41.64201892 135.98790902 41.62062073 138.06584167 C41.56548886 143.52872386 41.51604044 148.99164327 41.46777344 154.45458984 C41.40864966 161.01256115 41.34247064 167.5704646 41.27747345 174.12837982 C41.17957575 184.08554502 41.09064314 194.04275421 41 204 C27.47 204 13.94 204 0 204 C0 136.68 0 69.36 0 0 Z " fill="#25AAE1" transform="translate(1797,229)"/>
<path d="M0 0 C1.29784424 -0.01015137 2.59568848 -0.02030273 3.93286133 -0.03076172 C21.62324734 0.12827816 39.51096257 4.30486739 52.75390625 16.65625 C62.03351058 26.31804561 67.375 38.91882486 67.375 52.4375 C62.82187658 52.56197553 58.26976346 52.65224409 53.71533203 52.7121582 C52.16925788 52.73715732 50.62330018 52.77116902 49.07763672 52.81469727 C33.40975456 53.24457783 33.40975456 53.24457783 27.73730469 48.78979492 C26.0519527 47.11682635 24.70027338 45.49038137 23.5 43.4375 C19.4352937 37.57856368 13.55944645 35.15125524 6.75 33.625 C5.63625 33.563125 4.5225 33.50125 3.375 33.4375 C2.158125 33.355 0.94125 33.2725 -0.3125 33.1875 C-6.58631563 33.28572021 -14.00409695 34.27570072 -18.921875 38.33203125 C-21.37060653 41.35924753 -21.625 43.57945561 -21.625 47.4375 C-19.32432787 52.26891147 -15.12099509 54.10408654 -10.3984375 56.1171875 C-0.22676237 59.67622083 10.37734627 62.03411404 20.859375 64.49609375 C37.27102296 68.37632866 57.53580667 73.56877489 67.375 88.4375 C73.55920098 99.76255517 74.03094858 113.33094845 71.25 125.8125 C67.5240984 138.42191698 60.48876249 148.27150489 48.94580078 154.70605469 C36.4026055 161.2261985 22.45197665 164.020807 8.375 164.4375 C7.15683594 164.47746094 5.93867187 164.51742187 4.68359375 164.55859375 C-16.08279681 164.90368528 -38.13404719 162.78837229 -54.12109375 148.15234375 C-65.38601151 136.48048314 -67.625 124.34701421 -67.625 108.4375 C-54.095 108.4375 -40.565 108.4375 -26.625 108.4375 C-25.635 111.7375 -24.645 115.0375 -23.625 118.4375 C-22.635 119.7575 -21.645 121.0775 -20.625 122.4375 C-20.625 123.0975 -20.625 123.7575 -20.625 124.4375 C-8.69757804 130.63975942 4.43402456 132.68938763 17.703125 129.68359375 C21.90390318 128.08000328 25.85021015 126.2795715 28.375 122.4375 C29.57824846 118.37653644 29.70381269 116.25953171 28.125 112.3125 C20.88095894 104.73918434 9.6785089 103.09157382 -0.1875 101 C-45.95476955 90.85873912 -45.95476955 90.85873912 -57.3671875 75.01953125 C-64.39507786 63.90604913 -65.49136049 51.16108113 -63.25439453 38.30810547 C-61.14906887 29.61733867 -56.75087319 22.82354541 -50.625 16.4375 C-49.80902344 15.57898438 -49.80902344 15.57898438 -48.9765625 14.703125 C-35.58958216 2.03447044 -17.47967308 0.07850191 0 0 Z " fill="#25AAE1" transform="translate(1718.625,271.5625)"/>
<path d="M0 0 C2.14564453 0.02905459 4.28881051 0.02052112 6.43457031 0.00756836 C25.04641077 0.03528507 43.38762791 3.22740283 57.27050781 16.49780273 C65.44967355 25.03781402 68.2507241 34.26527297 68.29077148 45.96826172 C68.29715134 47.24076279 68.30353119 48.51326385 68.31010437 49.82432556 C68.3116345 51.20376548 68.31274768 52.58320591 68.31347656 53.96264648 C68.31669644 55.39787325 68.32006104 56.8330997 68.32356262 58.26832581 C68.32953959 61.27671059 68.33140427 64.28506673 68.33081055 67.29345703 C68.33070964 71.1055362 68.34429349 74.91742609 68.36158276 78.72946072 C68.37283626 81.69731956 68.37472563 84.6651348 68.37420082 87.63301277 C68.37536359 89.03570259 68.37968674 90.43839419 68.38753319 91.84106255 C68.49409365 112.87850956 65.66879621 130.51624916 51.15722656 146.68139648 C34.85757811 162.67408357 10.33544505 164.23435857 -11.22949219 164.77905273 C-26.88937771 164.42484104 -42.75240956 160.49636368 -54.54199219 149.59155273 C-65.16606444 137.54001703 -66.77264613 121.8657662 -65.85449219 106.46655273 C-64.86236165 97.30465591 -61.54844966 87.0614453 -54.85449219 80.46655273 C-40.76111712 69.64853044 -25.34902578 65.79318009 -8.06201172 63.01831055 C-6.04806809 62.6934703 -4.03481075 62.36435014 -2.0222168 62.03125 C-0.04954946 61.70566413 1.92486003 61.39039919 3.90112305 61.08740234 C11.32534555 59.86546533 19.85983319 58.28533685 25.33300781 52.71655273 C27.36378178 49.07516493 27.69021924 47.29153946 26.82910156 43.29077148 C25.60068486 40.01265377 24.24882336 39.10948449 21.14550781 37.46655273 C9.71822487 33.35486682 -2.00275465 32.8774825 -13.45214844 37.00561523 C-16.11715431 38.39699508 -16.11715431 38.39699508 -17.91357422 41.52124023 C-19.52377185 43.48604348 -20.40517091 44.34905525 -22.8835907 44.99716187 C-25.37958246 45.1603773 -27.81172262 45.14136677 -30.31152344 45.05249023 C-31.66596809 45.03975571 -31.66596809 45.03975571 -33.04777527 45.02676392 C-35.92207911 44.99326818 -38.79354151 44.91799859 -41.66699219 44.84155273 C-43.61942553 44.81144807 -45.571903 44.78407314 -47.52441406 44.75952148 C-52.30219583 44.69348961 -57.07786288 44.58999621 -61.85449219 44.46655273 C-59.37000633 30.33134717 -53.60617939 18.78175274 -41.72558594 10.20874023 C-28.86235076 2.07958535 -14.98973578 -0.22023644 0 0 Z M22.17285156 84.63842773 C21.36380371 84.88858643 20.55475586 85.13874512 19.72119141 85.39648438 C18.85059082 85.66710693 17.97999023 85.93772949 17.08300781 86.21655273 C10.43711991 88.26231686 3.81606339 90.05961814 -2.97949219 91.52905273 C-10.74474462 93.26483616 -17.81023489 95.19397613 -23.35449219 101.15405273 C-26.10286108 107.22336737 -27.72353005 112.74122368 -25.72949219 119.27905273 C-23.95444691 123.61720219 -22.31138158 127.22300421 -17.94824219 129.43139648 C-9.57702824 132.62955393 -0.28078076 132.4667134 8.14550781 129.46655273 C16.59626571 125.45276332 22.58537586 120.45749926 26.52050781 111.90405273 C29.57441331 102.94424736 28.46668513 92.80169511 28.14550781 83.46655273 C25.90289617 83.46655273 24.31281259 83.96625895 22.17285156 84.63842773 Z " fill="#25AAE1" transform="translate(1581.8544921875,271.533447265625)"/>
<path d="M0 0 C15.77016174 13.69576079 23.71423145 32.40658189 26.30078125 52.89453125 C27.62582808 80.74259889 25.97649073 107.92997059 7.05078125 130.08203125 C-6.10491622 144.09427664 -24.12862167 149.98810543 -42.984375 151.01953125 C-63.4600411 151.55223151 -83.90614586 145.28176262 -98.94921875 131.20703125 C-116.38636612 112.83032285 -119.54689501 85.72036446 -118.98828125 61.42578125 C-118.17606263 41.6322182 -112.77609661 22.07508076 -99.69921875 6.89453125 C-99.18875 6.28867187 -98.67828125 5.6828125 -98.15234375 5.05859375 C-74.92240783 -20.35633614 -26.18830106 -20.42763281 0 0 Z M-69.69921875 32.89453125 C-80.11863646 48.34682696 -79.49095353 69.36650755 -76.10766602 87.00048828 C-73.86135616 97.43504034 -70.89520335 105.90295508 -61.69921875 111.89453125 C-54.71032964 116.33718372 -47.8368269 116.73890045 -39.69921875 115.89453125 C-31.02844009 113.47808474 -24.6465444 106.82659105 -19.94921875 99.359375 C-17.7742338 95.07057655 -16.65169212 90.58837485 -15.69921875 85.89453125 C-15.51488281 85.04503906 -15.33054687 84.19554687 -15.140625 83.3203125 C-14.47313376 78.13987161 -14.47394938 72.98769432 -14.44921875 67.76953125 C-14.42859375 66.70476562 -14.40796875 65.64 -14.38671875 64.54296875 C-14.3319274 53.25595156 -16.49468594 43.39767644 -22.69921875 33.89453125 C-23.25609375 33.00765625 -23.81296875 32.12078125 -24.38671875 31.20703125 C-30.15461576 25.43913424 -37.10400624 21.83737975 -45.26171875 21.58203125 C-54.91991663 21.72427275 -63.44787704 25.48975291 -69.69921875 32.89453125 Z " fill="#0F7AAE" transform="translate(922.69921875,285.10546875)"/>
<path d="M0 0 C13.86 0 27.72 0 42 0 C42.01458252 3.16392334 42.02916504 6.32784668 42.04418945 9.58764648 C42.09459224 20.0571093 42.16119756 30.52642428 42.23571491 40.99574184 C42.28038653 47.3414679 42.31964998 53.68713022 42.34643555 60.03295898 C42.37250015 66.16037603 42.41292554 72.28754742 42.46318626 78.41481209 C42.47983351 80.74906413 42.49136109 83.08335864 42.49761391 85.41766167 C42.50727802 88.69463553 42.53536611 91.97098391 42.56762695 95.24780273 C42.56619186 96.20662354 42.56475677 97.16544434 42.5632782 98.15332031 C42.66790675 105.69930762 43.99518733 111.96414082 48.1875 118.3125 C54.96958512 124.79315911 62.39980301 126.3566905 71.56640625 126.28515625 C78.42743077 125.71535558 85.217629 123.06368694 90 118 C94.1861018 111.10859431 95.14699016 105.336602 95.1418457 97.31933594 C95.14705734 96.00637291 95.14705734 96.00637291 95.15237427 94.66688538 C95.1597204 92.76752099 95.16507187 90.86814808 95.16866493 88.96877289 C95.17584285 85.95854269 95.19151988 82.94847431 95.21000671 79.93829346 C95.26241066 71.37994618 95.31043635 62.82168784 95.32592773 54.26318359 C95.33602853 49.02587475 95.3654062 43.78897389 95.40724754 38.55182648 C95.41953226 36.56005189 95.42468344 34.56821961 95.42244911 32.57640839 C95.42008704 29.78324598 95.44233124 26.99124693 95.4699707 24.19824219 C95.46006859 22.97443596 95.46006859 22.97443596 95.44996643 21.72590637 C95.55076666 15.49318732 97.10354271 10.1390469 101.41174793 5.47001266 C106.35447615 1.11279619 110.68521807 -0.25925894 117.17578125 -0.1953125 C118.33271484 -0.18886719 119.48964844 -0.18242187 120.68164062 -0.17578125 C122.47891602 -0.15064453 122.47891602 -0.15064453 124.3125 -0.125 C126.1387793 -0.11146484 126.1387793 -0.11146484 128.00195312 -0.09765625 C131.00150274 -0.07413037 134.00065044 -0.04125653 137 0 C137.07038762 13.97000721 137.12293272 27.93998652 137.15543652 41.91013527 C137.17104256 48.39816088 137.19218794 54.88606673 137.22631836 61.37402344 C137.2590928 67.64398743 137.27689102 73.91383676 137.28463173 80.18387985 C137.2901429 82.56707945 137.30090422 84.9502733 137.31719017 87.33342361 C137.44827105 107.32325158 137.20729076 127.59096063 122.3671875 142.8203125 C107.90640838 156.13568338 86.06376396 161.47054747 66.76953125 161.14453125 C49.67820831 160.25260043 33.51776613 155.02513948 19 146 C18.37867188 145.61457031 17.75734375 145.22914063 17.1171875 144.83203125 C6.8310903 137.37326443 2.59283999 122.86975205 0.44801331 110.92625427 C-0.10761297 106.05691223 -0.13157372 101.27938694 -0.11352539 96.38305664 C-0.11374443 94.81607529 -0.11374443 94.81607529 -0.1139679 93.21743774 C-0.11327401 89.78165576 -0.10550616 86.34592871 -0.09765625 82.91015625 C-0.09579021 80.52119476 -0.09436718 78.13223288 -0.09336853 75.74327087 C-0.089558 69.46824072 -0.07974023 63.19323387 -0.06866455 56.91821289 C-0.05841893 50.50993159 -0.05386416 44.10164651 -0.04882812 37.69335938 C-0.03811663 25.12889439 -0.0205317 12.56445278 0 0 Z " fill="#0F7AAE" transform="translate(955,275)"/>
<path d="M0 0 C30.06666667 0 30.06666667 0 37.0234375 5.640625 C37.46945312 6.17171875 37.91546875 6.7028125 38.375 7.25 C38.83648438 7.77078125 39.29796875 8.2915625 39.7734375 8.828125 C42.92823538 14.41432761 43.29305719 20.70265763 43.24050903 26.98535156 C43.24221788 27.74764415 43.24392673 28.50993673 43.24568737 29.29532909 C43.24895854 31.82719274 43.2380181 34.35878613 43.22705078 36.890625 C43.22648615 38.71444187 43.22680423 40.5382592 43.22793579 42.36207581 C43.22850829 47.2974352 43.21677061 52.23269686 43.20278788 57.1680336 C43.19026338 62.33166251 43.18910866 67.49529379 43.18673706 72.65893555 C43.18052735 82.42995605 43.1641234 92.20093166 43.14403808 101.97193241 C43.12166326 113.09886487 43.11068167 124.2257995 43.10064721 135.35274887 C43.07975673 158.23519652 43.04308682 181.11758264 43 204 C28.81 204 14.62 204 0 204 C0 136.68 0 69.36 0 0 Z " fill="#0F7AAE" transform="translate(759,229)"/>
<path d="M0 0 C0.59973633 0.25281738 1.19947266 0.50563477 1.81738281 0.76611328 C18.65517139 8.01925137 30.57834413 19.05594365 37.93359375 36.12109375 C40.20890307 42.26359547 42 48.43041571 42 55 C38.32238669 56.17683626 34.83330292 56.03578346 31 56 C30.50371094 54.94941406 30.00742187 53.89882813 29.49609375 52.81640625 C21.79894024 36.78401303 13.29171875 25.54565476 -3.97265625 18.96875 C-18.6651893 14.26713942 -33.04146258 15.4538124 -47 22 C-49.76216552 23.69446829 -52.34718976 25.47369042 -54.9140625 27.44921875 C-57 29 -57 29 -59.1484375 29.95703125 C-61.5203178 31.2930904 -61.90551122 32.54188585 -63 35 C-64.07181385 36.42540192 -65.15645603 37.84120011 -66.25 39.25 C-71.00196189 45.88481472 -73.4045089 53.33712152 -76 61 C-79.57770548 59.61702141 -82.74845193 58.04383021 -86 56 C-85.66959498 42.96402003 -80.62691174 31.41239255 -73 21 C-72.48953125 20.29359375 -71.9790625 19.5871875 -71.453125 18.859375 C-55.79507234 -0.82946349 -23.41403824 -10.07821646 0 0 Z " fill="#25AAE1" transform="translate(306,226)"/>
<path d="M0 0 C7.59783138 6.57074153 12.66252846 13.89051008 14.25390625 23.94921875 C15.09669197 36.3154785 13.25100888 46.25840661 5.25390625 55.94921875 C-2.06451395 63.8424574 -10.49515196 68.29015735 -21.2890625 69.15234375 C-32.90044775 69.35815856 -43.31394497 66.01882824 -51.89453125 57.921875 C-54.82774505 54.70731212 -56.96097304 52.31100048 -57.74609375 47.94921875 C-57.33359375 48.32433594 -56.92109375 48.69945312 -56.49609375 49.0859375 C-47.62535923 56.94683394 -39.88754715 61.44987352 -27.7734375 61.1953125 C-19.91845612 60.55677853 -13.32568532 57.55230334 -7.74609375 51.94921875 C-2.03088954 44.38385975 1.08096106 36.54305455 0.25390625 26.94921875 C-1.08975195 20.79977574 -3.04255337 16.01072394 -6.74609375 10.94921875 C-7.24109375 9.46421875 -7.24109375 9.46421875 -7.74609375 7.94921875 C-9.56322604 6.85774718 -9.56322604 6.85774718 -11.74609375 5.94921875 C-14.01338062 4.66788233 -16.27166357 3.37196356 -18.52734375 2.0703125 C-25.54396314 -1.4750568 -33.96970865 -0.90668284 -41.30859375 1.38671875 C-47.58216519 3.87264403 -52.06563117 8.19768624 -56.74609375 12.94921875 C-56.74609375 8.1696227 -53.90184112 5.37064506 -50.74609375 1.94921875 C-35.9005168 -10.29906573 -15.5636309 -11.91629525 0 0 Z " fill="#25AAE1" transform="translate(370.74609375,293.05078125)"/>
<path d="M0 0 C1.7734375 1.578125 1.7734375 1.578125 3 3 C5.49361571 1.79618552 7.68143083 0.54571278 10 -1 C16.0017863 -2.32242749 20.64735295 -2.28754597 26 1 C30.60044417 6.42616492 31.13169679 11.26555195 31.09765625 18.17578125 C31.09443359 19.33271484 31.09121094 20.48964844 31.08789062 21.68164062 C31.07532227 23.47891602 31.07532227 23.47891602 31.0625 25.3125 C31.05798828 26.53001953 31.05347656 27.74753906 31.04882812 29.00195312 C31.03706578 32.00135226 31.02062826 35.00065089 31 38 C28.03 38 25.06 38 22 38 C21.98541748 37.16750732 21.97083496 36.33501465 21.95581055 35.47729492 C21.8947137 32.38510347 21.82055444 29.29357918 21.73754883 26.2019043 C21.68798681 24.2070937 21.65348867 22.21192743 21.61914062 20.21679688 C21.58369141 18.96318359 21.54824219 17.70957031 21.51171875 16.41796875 C21.48553467 15.26063232 21.45935059 14.1032959 21.43237305 12.91088867 C21.22644186 10.0239158 21.22644186 10.0239158 19.68286133 8.13012695 C16.75555472 6.16429171 14.39443802 6.52358765 11 7 C7.34785489 10.58643262 6.49021941 13.12136519 6.390625 18.17578125 C6.35839844 19.33271484 6.32617188 20.48964844 6.29296875 21.68164062 C6.27878906 22.87982422 6.26460937 24.07800781 6.25 25.3125 C6.20552734 27.1387793 6.20552734 27.1387793 6.16015625 29.00195312 C6.08958177 32.00136833 6.03682136 35.0000117 6 38 C3.36 38 0.72 38 -2 38 C-2.0093457 37.20303711 -2.01869141 36.40607422 -2.02832031 35.58496094 C-2.08201498 31.97267825 -2.16566608 28.36169179 -2.25 24.75 C-2.26417969 23.49574219 -2.27835938 22.24148438 -2.29296875 20.94921875 C-2.32519531 19.74394531 -2.35742188 18.53867187 -2.390625 17.296875 C-2.41157227 16.18666992 -2.43251953 15.07646484 -2.45410156 13.93261719 C-3.11671754 10.37298252 -4.14926613 9.17204939 -7 7 C-10 6.33333333 -10 6.33333333 -13 7 C-15.85073387 9.17204939 -16.88328246 10.37298252 -17.54589844 13.93261719 C-17.5668457 15.04282227 -17.58779297 16.15302734 -17.609375 17.296875 C-17.64160156 18.50214844 -17.67382812 19.70742188 -17.70703125 20.94921875 C-17.72830078 22.83060547 -17.72830078 22.83060547 -17.75 24.75 C-17.77964844 26.01972656 -17.80929687 27.28945313 -17.83984375 28.59765625 C-17.91053951 31.73183485 -17.96324012 34.86526956 -18 38 C-20.64 38 -23.28 38 -26 38 C-26 25.13 -26 12.26 -26 -1 C-23.36 -1 -20.72 -1 -18 -1 C-17.67 -0.34 -17.34 0.32 -17 1 C-16.01 0.34 -15.02 -0.32 -14 -1 C-9.31181348 -2.65465407 -4.57338858 -1.67862203 0 0 Z " fill="#515252" transform="translate(850,483)"/>
<path d="M0 0 C0.639375 0.61875 1.27875 1.2375 1.9375 1.875 C2.783125 1.070625 3.62875 0.26625 4.5 -0.5625 C7.87670419 -3.35264055 10.49514944 -4.04706403 14.9375 -4.125 C19.35454223 -3.4395969 21.94333649 -2.49709159 24.8125 0.875 C27.91387518 5.25341202 28.05768618 7.2706898 28.03515625 12.6328125 C28.0337413 13.29586395 28.03232635 13.95891541 28.03086853 14.64205933 C28.02526754 16.76141863 28.012715 18.88067259 28 21 C27.99498512 22.43619639 27.99042219 23.87239444 27.98632812 25.30859375 C27.97529782 28.83076345 27.95803259 32.35287145 27.9375 35.875 C25.2975 35.875 22.6575 35.875 19.9375 35.875 C19.9281543 35.07803711 19.91880859 34.28107422 19.90917969 33.45996094 C19.85548502 29.84767825 19.77183392 26.23669179 19.6875 22.625 C19.67332031 21.37074219 19.65914062 20.11648438 19.64453125 18.82421875 C19.61230469 17.61894531 19.58007812 16.41367187 19.546875 15.171875 C19.52592773 14.06166992 19.50498047 12.95146484 19.48339844 11.80761719 C18.82078246 8.24798252 17.78823387 7.04704939 14.9375 4.875 C11.9375 4.20833333 11.9375 4.20833333 8.9375 4.875 C6.08676613 7.04704939 5.05421754 8.24798252 4.39160156 11.80761719 C4.3706543 12.91782227 4.34970703 14.02802734 4.328125 15.171875 C4.29589844 16.37714844 4.26367188 17.58242188 4.23046875 18.82421875 C4.21628906 20.07847656 4.20210937 21.33273437 4.1875 22.625 C4.14302734 24.52958984 4.14302734 24.52958984 4.09765625 26.47265625 C4.02696049 29.60683485 3.97425988 32.74026956 3.9375 35.875 C1.2975 35.875 -1.3425 35.875 -4.0625 35.875 C-4.08231934 35.14385986 -4.10213867 34.41271973 -4.12255859 33.65942383 C-4.21802914 30.33509731 -4.32761966 27.01138014 -4.4375 23.6875 C-4.4684375 22.53701172 -4.499375 21.38652344 -4.53125 20.20117188 C-4.56992187 19.08935547 -4.60859375 17.97753906 -4.6484375 16.83203125 C-4.69556885 15.30026245 -4.69556885 15.30026245 -4.74365234 13.73754883 C-5.07500647 10.76271949 -5.72229669 8.54558284 -7.0625 5.875 C-9.87165474 4.47042263 -11.95060534 4.62604843 -15.0625 4.875 C-17.49778005 6.19136759 -18.76247425 6.9750478 -19.64819336 9.63183594 C-20.13666199 12.27653231 -20.27881903 14.82756826 -20.37890625 17.515625 C-20.44174805 19.12050781 -20.44174805 19.12050781 -20.50585938 20.7578125 C-20.54517578 21.86898438 -20.58449219 22.98015625 -20.625 24.125 C-20.66818359 25.25164062 -20.71136719 26.37828125 -20.75585938 27.5390625 C-20.86182015 30.31758954 -20.96389142 33.09620391 -21.0625 35.875 C-23.7025 35.875 -26.3425 35.875 -29.0625 35.875 C-29.0625 23.005 -29.0625 10.135 -29.0625 -3.125 C-26.4225 -3.125 -23.7825 -3.125 -21.0625 -3.125 C-20.7325 -2.135 -20.4025 -1.145 -20.0625 -0.125 C-19.19625 -0.8365625 -19.19625 -0.8365625 -18.3125 -1.5625 C-12.37142193 -5.68824866 -5.63814948 -3.91218535 0 0 Z " fill="#515252" transform="translate(980.0625,485.125)"/>
<path d="M0 0 C3.3 0 6.6 0 10 0 C15.79983361 12.97762617 21.59329355 25.9592153 27.25 39 C27.63212646 39.87035889 28.01425293 40.74071777 28.40795898 41.63745117 C28.75286377 42.43771729 29.09776855 43.2379834 29.453125 44.0625 C29.75379883 44.75472656 30.05447266 45.44695313 30.36425781 46.16015625 C31 48 31 48 31 51 C28.03 51 25.06 51 22 51 C18 43.25 18 43.25 18 41 C9.42 41 0.84 41 -8 41 C-8.99 43.97 -9.98 46.94 -11 50 C-12 51 -12 51 -14.06640625 51.09765625 C-17.53320312 51.04882812 -17.53320312 51.04882812 -21 51 C-18.94861066 44.47281846 -16.49048135 38.20822052 -13.76953125 31.93359375 C-13.37424728 31.01409439 -12.97896332 30.09459503 -12.57170105 29.14723206 C-11.32205962 26.24249843 -10.0673713 23.33997753 -8.8125 20.4375 C-7.95864833 18.45522284 -7.10512947 16.47280229 -6.25195312 14.49023438 C-4.17181133 9.65849057 -2.08714385 4.82872304 0 0 Z M5 12 C1.38063801 18.83822081 -1.46881647 25.68769203 -4 33 C1.94 33 7.88 33 14 33 C11.72564796 25.81783567 8.96415819 18.9241798 6 12 C5.67 12 5.34 12 5 12 Z " fill="#515252" transform="translate(1251,470)"/>
<path d="M0 0 C6.6825 -0.12375 6.6825 -0.12375 13.5 -0.25 C15.58344727 -0.30462402 15.58344727 -0.30462402 17.70898438 -0.36035156 C24.97294187 -0.4253206 29.88496282 -0.03989821 36 4 C40.64305954 8.88116515 41.35728013 12.96700606 41.28125 19.49609375 C40.73876691 24.32570018 38.04108524 26.9870522 34.6875 30.25 C28.98216622 33.96510107 23.14126885 34.28024713 16.5625 34.125 C14.066875 34.08375 11.57125 34.0425 9 34 C9 39.61 9 45.22 9 51 C6.03 51 3.06 51 0 51 C0 34.17 0 17.34 0 0 Z M9 8 C9 13.94 9 19.88 9 26 C11.35125 26.061875 13.7025 26.12375 16.125 26.1875 C16.85348145 26.21481201 17.58196289 26.24212402 18.33251953 26.27026367 C22.99925556 26.32911998 26.05022325 25.4437046 30 23 C32.15254366 20.85701707 32.15254366 20.85701707 33 18 C32.46515984 14.12240884 32.01695655 11.8458434 28.95703125 9.30078125 C24.93967473 7.53356893 21.51458734 7.67214189 17.1875 7.8125 C14.485625 7.874375 11.78375 7.93625 9 8 Z " fill="#515252" transform="translate(704,470)"/>
<path d="M0 0 C2.64 0 5.28 0 8 0 C8 17.16 8 34.32 8 52 C5.36 52 2.72 52 0 52 C-0.33 51.01 -0.66 50.02 -1 49 C-1.94875 49.66 -2.8975 50.32 -3.875 51 C-8.51504509 53.61529814 -12.79168708 53.92918259 -18 53 C-24.21356156 50.59131233 -27.29207953 46.95742503 -30 41 C-31.89984479 34.63743255 -31.72488472 27.97752206 -29.09765625 21.85546875 C-26.19236826 16.94439475 -22.07226026 14.00882508 -16.625 12.4375 C-11.65500731 11.57648926 -7.46601415 12.77171387 -3 15 C-2.34 15.66 -1.68 16.32 -1 17 C-0.67 11.39 -0.34 5.78 0 0 Z M-21 25 C-22.96400295 28.9280059 -22.33541968 33.70787038 -22 38 C-20.62819836 41.65813769 -19.46818794 42.68078095 -16.25 44.875 C-12.20815353 46.2741007 -10.08851312 46.26372224 -6 45 C-2.18860169 41.62950895 -0.08838667 38.3258001 0.25 33.25 C0.18335194 29.16965736 -0.68286703 26.43574888 -3 23 C-5.87278179 20.60601518 -7.72667978 20.03975567 -11.4375 19.5 C-16.16675851 20.16375558 -17.65681791 21.65681791 -21 25 Z " fill="#515252" transform="translate(1445,469)"/>
<path d="M0 0 C4.85953646 3.68831626 6.75838283 7.93570795 7.91015625 13.83984375 C8.65200399 20.76375598 6.77642564 26.87955437 3.09765625 32.71484375 C-0.91181554 36.6097592 -4.49821827 38.02563849 -10.02734375 38.27734375 C-15.06869014 38.14768734 -17.98974317 36.69208763 -22.08984375 33.83984375 C-22.41984375 39.11984375 -22.74984375 44.39984375 -23.08984375 49.83984375 C-25.72984375 49.83984375 -28.36984375 49.83984375 -31.08984375 49.83984375 C-31.08984375 32.67984375 -31.08984375 15.51984375 -31.08984375 -2.16015625 C-28.44984375 -2.16015625 -25.80984375 -2.16015625 -23.08984375 -2.16015625 C-22.75984375 -0.84015625 -22.42984375 0.47984375 -22.08984375 1.83984375 C-21.73921875 1.38609375 -21.38859375 0.93234375 -21.02734375 0.46484375 C-14.88590123 -4.68604353 -6.63516479 -3.68344662 0 0 Z M-21.08984375 8.83984375 C-23.61729644 13.09379581 -23.77014726 17.00212991 -23.08984375 21.83984375 C-20.91410394 26.19132337 -18.66319746 29.03177368 -14.08984375 30.83984375 C-9.58068988 30.83984375 -7.67745507 30.33803595 -4.21484375 27.40234375 C-0.82175544 23.31067844 -0.75573614 20.58192114 -0.80078125 15.38671875 C-1.21770437 11.71328804 -2.6862159 9.586847 -5.08984375 6.83984375 C-10.93003811 2.94638084 -16.39729081 3.87125828 -21.08984375 8.83984375 Z " fill="#515252" transform="translate(1666.08984375,484.16015625)"/>
<path d="M0 0 C2.64 0 5.28 0 8 0 C8.33 5.61 8.66 11.22 9 17 C10.65 15.68 12.3 14.36 14 13 C20.24424917 11.43893771 25.28070072 11.92363014 31 15 C35.24954204 18.43406489 37.80798597 22.45725514 38.81640625 27.83203125 C39.43088343 35.08809154 38.38153178 42.03395201 34 48 C28.21098152 52.60758614 23.22137226 53.72582788 16 53 C10.90909091 50.90909091 10.90909091 50.90909091 9 49 C8.67 49.99 8.34 50.98 8 52 C5.36 52 2.72 52 0 52 C0 34.84 0 17.68 0 0 Z M10 24 C7.46236606 28.24719786 7.42947161 32.16779741 8 37 C9.17274994 39.87391821 9.17274994 39.87391821 11 42 C11.61875 42.86625 11.61875 42.86625 12.25 43.75 C15.08216942 45.77297816 17.57224219 45.88180145 21 46 C24.21725864 44.53760971 26.73476552 42.71828138 29 40 C30.35504519 35.93486443 30.53675858 32.25054768 30 28 C27.9949912 24.1973971 26.57313738 22.38209159 23 20 C17.16082257 19.43491831 14.21442008 19.53767285 10 24 Z " fill="#515252" transform="translate(1506,469)"/>
<path d="M0 0 C3.62502574 3.50533149 5.23469952 7.51011621 6.0625 12.4375 C6.0625 14.7475 6.0625 17.0575 6.0625 19.4375 C-3.5075 19.4375 -13.0775 19.4375 -22.9375 19.4375 C-20.60406889 25.40422959 -20.60406889 25.40422959 -16.75 27.4375 C-10.90620593 28.97029844 -6.11534672 27.45791059 -0.9375 24.4375 C1.5375 27.4075 1.5375 27.4075 4.0625 30.4375 C-1.68135448 35.5056069 -6.86698478 36.93148984 -14.41015625 36.75 C-19.92235222 36.06843017 -24.1488697 33.63360036 -27.8125 29.5 C-32.10565336 23.31280839 -32.76732772 17.8333396 -31.9375 10.4375 C-30.20630936 4.60456791 -27.05063268 0.78070214 -21.9375 -2.5625 C-14.61776068 -5.85953776 -6.39825956 -4.84593921 0 0 Z M-21.9375 8.4375 C-22.2675 9.7575 -22.5975 11.0775 -22.9375 12.4375 C-16.0075 12.4375 -9.0775 12.4375 -1.9375 12.4375 C-3.91931113 7.48297219 -4.54546484 6.0727211 -8.9375 3.4375 C-15.20435731 2.41201426 -17.76408701 4.06535305 -21.9375 8.4375 Z " fill="#515252" transform="translate(1599.9375,485.5625)"/>
<path d="M0 0 C3.62502574 3.50533149 5.23469952 7.51011621 6.0625 12.4375 C6.0625 14.7475 6.0625 17.0575 6.0625 19.4375 C-3.5075 19.4375 -13.0775 19.4375 -22.9375 19.4375 C-20.60406889 25.40422959 -20.60406889 25.40422959 -16.75 27.4375 C-10.90620593 28.97029844 -6.11534672 27.45791059 -0.9375 24.4375 C1.5375 27.4075 1.5375 27.4075 4.0625 30.4375 C-1.68135448 35.5056069 -6.86698478 36.93148984 -14.41015625 36.75 C-19.92235222 36.06843017 -24.1488697 33.63360036 -27.8125 29.5 C-32.10565336 23.31280839 -32.76732772 17.8333396 -31.9375 10.4375 C-30.20630936 4.60456791 -27.05063268 0.78070214 -21.9375 -2.5625 C-14.61776068 -5.85953776 -6.39825956 -4.84593921 0 0 Z M-22.9375 9.4375 C-22.9375 10.4275 -22.9375 11.4175 -22.9375 12.4375 C-16.0075 12.4375 -9.0775 12.4375 -1.9375 12.4375 C-3.91931113 7.48297219 -4.54546484 6.0727211 -8.9375 3.4375 C-15.20054018 2.27767774 -19.08141483 4.6203237 -22.9375 9.4375 Z " fill="#515252" transform="translate(1178.9375,485.5625)"/>
<path d="M0 0 C5.64246301 6.66836538 6.0625 11.53874838 6.0625 20.4375 C-3.5075 20.4375 -13.0775 20.4375 -22.9375 20.4375 C-21.9475 22.0875 -20.9575 23.7375 -19.9375 25.4375 C-19.9375 26.0975 -19.9375 26.7575 -19.9375 27.4375 C-13.09451196 29.63929476 -9.47704217 29.3690189 -2.9375 26.4375 C0.0625 26.4375 0.0625 26.4375 2.25 28.4375 C2.848125 29.0975 3.44625 29.7575 4.0625 30.4375 C3.0625 33.4375 3.0625 33.4375 1.12890625 34.60546875 C-5.68753757 37.38096304 -11.95095054 38.99197601 -19.16796875 36.7421875 C-24.03984949 34.56675107 -26.98849481 31.86100778 -29.9375 27.4375 C-32.61799067 20.41716729 -32.76883166 14.21266887 -29.91796875 7.29296875 C-27.48430363 2.68742718 -23.51544907 -0.27352546 -18.9375 -2.5625 C-12.48870132 -4.29452532 -5.85567209 -3.11471919 0 0 Z M-21.75 9.5 C-23.11168735 11.34295752 -23.11168735 11.34295752 -22.9375 13.4375 C-16.0075 13.4375 -9.0775 13.4375 -1.9375 13.4375 C-3.28208728 7.64922277 -3.28208728 7.64922277 -6.1875 5.5625 C-12.55142269 2.95907708 -17.27122448 4.40346234 -21.75 9.5 Z " fill="#515252" transform="translate(809.9375,484.5625)"/>
<path d="M0 0 C5.66274137 6.32894623 6.24909521 11.6159521 7.125 20.375 C-2.775 20.375 -12.675 20.375 -22.875 20.375 C-18.972863 26.69795848 -18.972863 26.69795848 -12.875 29.375 C-8.14373858 28.95535768 -4.05442694 27.59709351 0.125 25.375 C2.1875 27.125 2.1875 27.125 4.125 29.375 C3.98828125 31.375 3.98828125 31.375 3.125 33.375 C-2.68352371 37.75165507 -9.88277122 38.3576357 -16.875 37.375 C-22.83439486 35.82350237 -26.63543333 32.35819809 -29.80859375 27.14453125 C-32.26086051 20.77582379 -32.14170967 13.4306593 -29.5390625 7.15234375 C-26.57462147 2.20464992 -22.63028193 -1.36675308 -17.0625 -3.125 C-11.07425771 -4.26672713 -5.25173602 -2.96837254 0 0 Z M-20.875 8.375 C-21.535 10.025 -22.195 11.675 -22.875 13.375 C-15.945 13.375 -9.015 13.375 -1.875 13.375 C-2.40263234 8.48749172 -2.40263234 8.48749172 -5 6.0625 C-11.04598767 2.51376811 -15.75818455 3.9721588 -20.875 8.375 Z " fill="#515252" transform="translate(1796.875,484.625)"/>
<path d="M0 0 C3.85401567 3.03465801 6.06639202 6.19019191 7 11 C7.08120233 13.0976396 7.10755808 15.19768762 7.09765625 17.296875 C7.09443359 18.50214844 7.09121094 19.70742188 7.08789062 20.94921875 C7.07532227 22.83060547 7.07532227 22.83060547 7.0625 24.75 C7.05798828 26.01972656 7.05347656 27.28945313 7.04882812 28.59765625 C7.03704556 31.73181836 7.02059416 34.86588541 7 38 C4.36 38 1.72 38 -1 38 C-1.33 37.01 -1.66 36.02 -2 35 C-2.598125 35.474375 -3.19625 35.94875 -3.8125 36.4375 C-8.21106364 39.57933117 -12.79348047 39.5073019 -18 39 C-21.63644512 37.5858269 -24.55683037 36.08610901 -27 33 C-28.48728837 28.53813488 -28.71130532 24.69922938 -26.875 20.3125 C-23.28124151 15.88019786 -19.73918201 13.86665845 -14.125 13.125 C-9.35537539 12.79979832 -5.54100247 13.57042515 -1 15 C-2.62464513 9.60086322 -2.62464513 9.60086322 -7 6.375 C-12.13758167 5.31433798 -17.16590484 7.37406564 -22 9 C-23.42944945 6.64561267 -24.08661261 5.51967567 -23.625 2.75 C-23.41875 2.1725 -23.2125 1.595 -23 1 C-15.11806317 -1.55853447 -7.92420502 -3.27192981 0 0 Z M-18.25 22.1875 C-20.23663522 24.82822327 -20.23663522 24.82822327 -20 27.6875 C-19.1108717 30.31863969 -19.1108717 30.31863969 -16 32 C-11.28076867 32.46418669 -8.89719562 32.40781619 -4.5625 30.4375 C-1.33630752 27.36868276 -1.16787629 25.36478343 -1 21 C-6.91144927 19.02951691 -13.00572283 18.65769806 -18.25 22.1875 Z " fill="#515252" transform="translate(1489,483)"/>
<path d="M0 0 C3.85401567 3.03465801 6.06639202 6.19019191 7 11 C7.08120233 13.0976396 7.10755808 15.19768762 7.09765625 17.296875 C7.09443359 18.50214844 7.09121094 19.70742188 7.08789062 20.94921875 C7.07532227 22.83060547 7.07532227 22.83060547 7.0625 24.75 C7.05798828 26.01972656 7.05347656 27.28945313 7.04882812 28.59765625 C7.03704556 31.73181836 7.02059416 34.86588541 7 38 C4.36 38 1.72 38 -1 38 C-1.33 37.01 -1.66 36.02 -2 35 C-2.598125 35.474375 -3.19625 35.94875 -3.8125 36.4375 C-8.22604855 39.59003468 -12.78072734 39.48260398 -18 39 C-23.16508328 37.24582077 -25.5641361 34.8717278 -28 30 C-28.61454266 25.69820137 -28.31986327 23.61603297 -26.3125 19.75 C-22.65583785 15.40153691 -19.75696416 13.93805566 -14.1875 13.1875 C-9.36838212 12.81179666 -5.59081325 13.55474398 -1 15 C-2.62464513 9.60086322 -2.62464513 9.60086322 -7 6.375 C-12.13758167 5.31433798 -17.16590484 7.37406564 -22 9 C-23.42944945 6.64561267 -24.08661261 5.51967567 -23.625 2.75 C-23.41875 2.1725 -23.2125 1.595 -23 1 C-15.11806317 -1.55853447 -7.92420502 -3.27192981 0 0 Z M-18.25 22.1875 C-20.23663522 24.82822327 -20.23663522 24.82822327 -20 27.6875 C-19.1108717 30.31863969 -19.1108717 30.31863969 -16 32 C-10.64997517 32.43145362 -7.35264636 32.45651329 -3 29 C-0.8480563 25.77208445 -0.79913557 24.71599191 -1 21 C-6.91144927 19.02951691 -13.00572283 18.65769806 -18.25 22.1875 Z " fill="#515252" transform="translate(1104,483)"/>
<path d="M0 0 C4.70727195 4.62844204 6.7487113 8.92074685 7.25 15.4375 C6.86622007 21.19419898 5.41349097 25.41053992 1.8125 29.9375 C-3.72609771 34.36837817 -8.61676347 36.8718612 -15.83203125 36.51171875 C-21.3901334 35.68050708 -26.06303614 33.12446386 -30 29.1875 C-33.9975852 23.55691431 -35.05006563 17.98586305 -34 11.1875 C-32.15389907 5.02654779 -28.42057832 0.58646919 -23 -2.8125 C-15.61257516 -6.34969918 -6.31233615 -5.16463867 0 0 Z M-23 7.1875 C-25.19982866 10.94849739 -26 13.39156704 -26 17.75 C-24.52533327 22.81916688 -22.2137013 25.88198385 -17.5625 28.625 C-13.17558921 29.58798042 -10.20414297 28.8595798 -6.3125 26.6875 C-3.11983997 23.23597565 -1.62278882 19.85447442 -1 15.1875 C-2.32493293 10.4333289 -4.22496543 7.35365803 -8 4.1875 C-13.63221937 1.37139031 -18.56902014 3.26004058 -23 7.1875 Z " fill="#515252" transform="translate(1373,485.8125)"/>
<path d="M0 0 C2.64 0 5.28 0 8 0 C8.01981934 0.69561035 8.03963867 1.3912207 8.06005859 2.10791016 C8.15572124 5.28063321 8.26523304 8.45273487 8.375 11.625 C8.4059375 12.71941406 8.436875 13.81382812 8.46875 14.94140625 C8.69905805 22.67167771 8.69905805 22.67167771 11 30 C13.49489813 32.0493806 14.76680083 32.01457495 18 31.8125 C21.06698015 30.98185954 22.72536387 30.19039035 25 28 C26.03714522 24.88856433 26.20031861 22.50531904 26.31640625 19.23828125 C26.35830078 18.12001953 26.40019531 17.00175781 26.44335938 15.84960938 C26.48267578 14.68236328 26.52199219 13.51511719 26.5625 12.3125 C26.60568359 11.13365234 26.64886719 9.95480469 26.69335938 8.74023438 C26.79951176 5.82694117 26.90156242 2.91356243 27 0 C29.64 0 32.28 0 35 0 C35 12.87 35 25.74 35 39 C32.36 39 29.72 39 27 39 C26.67 38.01 26.34 37.02 26 36 C25.401875 36.474375 24.80375 36.94875 24.1875 37.4375 C20.08466798 40.3680943 15.88268308 40.50031288 11 40 C5.81078829 38.20373441 3.62955609 35.77215734 1 31 C-0.14685227 27.55991033 -0.11467718 24.31156319 -0.09765625 20.703125 C-0.09443359 19.49785156 -0.09121094 18.29257812 -0.08789062 17.05078125 C-0.07951172 15.79652344 -0.07113281 14.54226563 -0.0625 13.25 C-0.05798828 11.98027344 -0.05347656 10.71054687 -0.04882812 9.40234375 C-0.03704556 6.26818164 -0.02059416 3.13411459 0 0 Z " fill="#515252" transform="translate(907,482)"/>
<path d="M0 0 C0.61875 0.61875 1.2375 1.2375 1.875 1.875 C0.90932113 4.28919718 0.11628309 5.68363755 -1.9375 7.3125 C-3.0203125 7.5909375 -3.0203125 7.5909375 -4.125 7.875 C-5.79563747 6.88164799 -7.46175599 5.88068242 -9.125 4.875 C-12.48049146 4.38692852 -14.87290855 4.14391304 -17.87109375 5.89453125 C-20.58377029 8.04775891 -22.0210602 9.56318059 -23.125 12.875 C-23.51471703 17.62954774 -23.5858337 19.95333261 -21.4375 24.25 C-18.95373403 27.06941002 -17.77622129 28.11079089 -14.125 28.875 C-9.30130815 28.61658794 -6.08488872 27.63492244 -2.125 24.875 C-0.0625 26.625 -0.0625 26.625 1.875 28.875 C1.7109375 30.875 1.7109375 30.875 0.875 32.875 C-3.58198121 36.64539663 -8.99638772 37.52375304 -14.671875 37.25390625 C-21.26116722 36.23613341 -25.88053742 32.9242626 -29.93359375 27.72265625 C-33.12899855 22.76715962 -33.57109378 17.83005169 -32.71875 12.14453125 C-31.20061772 6.34167035 -28.15110763 2.25608058 -23.1875 -1.0625 C-15.58097892 -5.25529374 -7.23389334 -4.91904747 0 0 Z " fill="#515252" transform="translate(1069.125,485.125)"/>
<path d="M0 0 C-1.65 1.98 -3.3 3.96 -5 6 C-7 5 -9 4 -11 3 C-15.19491568 2.59664272 -17.5250009 2.75801933 -21.3125 4.6875 C-25.03329272 7.88911234 -25.76519801 10.16071777 -26.375 14.9375 C-25.77129806 19.86773253 -23.43606732 22.79680846 -19.6875 25.9375 C-16.0317752 27.38278655 -13.78455577 26.94613894 -10 26 C-7.14751227 24.5578092 -7.14751227 24.5578092 -5 23 C-2.525 25.97 -2.525 25.97 0 29 C-5.69786102 33.88388087 -9.97671682 35.49013769 -17.4375 35.3125 C-22.99953849 34.63420262 -27.21628018 32.20272772 -30.875 28 C-35.37511039 21.64690298 -35.66393269 16.72859144 -35 9 C-32.77147996 2.54902095 -28.10327005 -2.0227951 -22 -5 C-14.13311668 -7.37836007 -6.2633823 -4.9447755 0 0 Z " fill="#515252" transform="translate(1761,487)"/>
<path d="M0 0 C0.99 0.66 1.98 1.32 3 2 C2.34 3.98 1.68 5.96 1 8 C-1.31 8 -3.62 8 -6 8 C-6.33 9.98 -6.66 11.96 -7 14 C-4.03 14 -1.06 14 2 14 C2 16.64 2 19.28 2 22 C-0.97 22 -3.94 22 -7 22 C-7 32.23 -7 42.46 -7 53 C-9.64 53 -12.28 53 -15 53 C-15 42.77 -15 32.54 -15 22 C-16.98 22 -18.96 22 -21 22 C-21 19.36 -21 16.72 -21 14 C-19.02 14 -17.04 14 -15 14 C-15.08701172 13.11248047 -15.08701172 13.11248047 -15.17578125 12.20703125 C-15.4179096 7.96632611 -15.3898004 5.63667398 -13.125 1.9375 C-8.81606246 -0.73404128 -4.96068998 -0.79875517 0 0 Z " fill="#515252" transform="translate(1333,468)"/>
<path d="M0 0 C0.99 0.66 1.98 1.32 3 2 C2.1875 4.4375 2.1875 4.4375 1 7 C-2 8 -2 8 -6 8 C-6.66 9.98 -7.32 11.96 -8 14 C-5.03 14 -2.06 14 1 14 C1 16.64 1 19.28 1 22 C-1.97 22 -4.94 22 -8 22 C-8 32.23 -8 42.46 -8 53 C-10.64 53 -13.28 53 -16 53 C-16 42.77 -16 32.54 -16 22 C-17.65 22 -19.3 22 -21 22 C-21 19.36 -21 16.72 -21 14 C-19.35 14 -17.7 14 -16 14 C-15.98582031 13.40832031 -15.97164062 12.81664062 -15.95703125 12.20703125 C-15.7071905 8.06777772 -15.31441624 5.49698051 -13.0625 1.9375 C-8.79827278 -0.7602764 -4.93296654 -0.79429122 0 0 Z " fill="#515252" transform="translate(1307,468)"/>
<path d="M0 0 C0 2.64 0 5.28 0 8 C-0.61488281 8.18175781 -1.22976563 8.36351562 -1.86328125 8.55078125 C-2.67152344 8.80214844 -3.47976563 9.05351562 -4.3125 9.3125 C-5.11300781 9.55613281 -5.91351562 9.79976563 -6.73828125 10.05078125 C-9.15143168 11.06355423 -10.37126886 11.97035042 -12 14 C-12.99455909 16.98367726 -13.19559632 19.2004192 -13.31640625 22.32421875 C-13.35830078 23.35224609 -13.40019531 24.38027344 -13.44335938 25.43945312 C-13.48267578 26.51130859 -13.52199219 27.58316406 -13.5625 28.6875 C-13.60568359 29.77095703 -13.64886719 30.85441406 -13.69335938 31.97070312 C-13.79946838 34.64700791 -13.90152361 37.32340526 -14 40 C-16.64 40 -19.28 40 -22 40 C-22 27.13 -22 14.26 -22 1 C-19.36 1 -16.72 1 -14 1 C-13.67 2.32 -13.34 3.64 -13 5 C-12.113125 4.360625 -11.22625 3.72125 -10.3125 3.0625 C-6.73069322 0.83231842 -4.16768331 0 0 0 Z " fill="#515252" transform="translate(774,481)"/>
<path d="M0 0 C0 2.64 0 5.28 0 8 C-0.60328125 8.15855469 -1.2065625 8.31710937 -1.828125 8.48046875 C-2.62734375 8.71378906 -3.4265625 8.94710938 -4.25 9.1875 C-5.03890625 9.40792969 -5.8278125 9.62835938 -6.640625 9.85546875 C-10.01794186 11.49380292 -11.15351172 12.66972649 -13 16 C-13.62571699 20.09995403 -13.69674011 24.17033308 -13.75 28.3125 C-13.77964844 29.43462891 -13.80929687 30.55675781 -13.83984375 31.71289062 C-13.91037417 34.47533207 -13.96315493 37.23693774 -14 40 C-16.64 40 -19.28 40 -22 40 C-22 27.13 -22 14.26 -22 1 C-19.36 1 -16.72 1 -14 1 C-13.67 2.32 -13.34 3.64 -13 5 C-12.113125 4.360625 -11.22625 3.72125 -10.3125 3.0625 C-6.73069322 0.83231842 -4.16768331 0 0 0 Z " fill="#515252" transform="translate(1704,481)"/>
<path d="M0 0 C0 2.64 0 5.28 0 8 C-0.61488281 8.18175781 -1.22976563 8.36351562 -1.86328125 8.55078125 C-2.67152344 8.80214844 -3.47976563 9.05351562 -4.3125 9.3125 C-5.11300781 9.55613281 -5.91351562 9.79976563 -6.73828125 10.05078125 C-9.89178885 11.37427408 -11.48076458 12.96152917 -13 16 C-13.15306901 17.81171098 -13.24946661 19.6283794 -13.31640625 21.4453125 C-13.35830078 22.52167969 -13.40019531 23.59804688 -13.44335938 24.70703125 C-13.50233398 26.39892578 -13.50233398 26.39892578 -13.5625 28.125 C-13.60568359 29.26066406 -13.64886719 30.39632813 -13.69335938 31.56640625 C-13.7996604 34.37747768 -13.90169405 37.18863945 -14 40 C-16.64 40 -19.28 40 -22 40 C-22 27.13 -22 14.26 -22 1 C-19.36 1 -16.72 1 -14 1 C-13.67 2.32 -13.34 3.64 -13 5 C-12.113125 4.360625 -11.22625 3.72125 -10.3125 3.0625 C-6.73069322 0.83231842 -4.16768331 0 0 0 Z " fill="#515252" transform="translate(1143,481)"/>
<path d="M0 0 C0 2.64 0 5.28 0 8 C-0.68707031 8.15855469 -1.37414063 8.31710937 -2.08203125 8.48046875 C-2.98308594 8.71378906 -3.88414063 8.94710938 -4.8125 9.1875 C-6.15248047 9.51814453 -6.15248047 9.51814453 -7.51953125 9.85546875 C-10.76017023 11.35075571 -11.43185092 12.82588831 -13 16 C-13.49616505 18.79238688 -13.49616505 18.79238688 -13.51171875 21.73828125 C-13.54716797 22.80498047 -13.58261719 23.87167969 -13.61914062 24.97070312 C-13.65297852 26.62489258 -13.65297852 26.62489258 -13.6875 28.3125 C-13.72166016 29.43462891 -13.75582031 30.55675781 -13.79101562 31.71289062 C-13.87329601 34.47516062 -13.94251281 37.23712113 -14 40 C-16.64 40 -19.28 40 -22 40 C-22 27.13 -22 14.26 -22 1 C-19.36 1 -16.72 1 -14 1 C-13.67 2.32 -13.34 3.64 -13 5 C-12.113125 4.360625 -11.22625 3.72125 -10.3125 3.0625 C-6.73069322 0.83231842 -4.16768331 0 0 0 Z " fill="#515252" transform="translate(1410,481)"/>
<path d="M0 0 C2.64 0 5.28 0 8 0 C8 17.16 8 34.32 8 52 C5.36 52 2.72 52 0 52 C0 34.84 0 17.68 0 0 Z " fill="#515252" transform="translate(1552,469)"/>
<path d="M0 0 C2.64 0 5.28 0 8 0 C8 12.87 8 25.74 8 39 C5.36 39 2.72 39 0 39 C0 26.13 0 13.26 0 0 Z " fill="#515252" transform="translate(1710,482)"/>
<path d="M0 0 C2.64 0 5.28 0 8 0 C8 12.87 8 25.74 8 39 C5.36 39 2.72 39 0 39 C0 26.13 0 13.26 0 0 Z " fill="#515252" transform="translate(890,482)"/>
<path d="M0 0 C2.4375 0.75 2.4375 0.75 4.4375 2.75 C5.45143933 7.89440797 4.71668625 11.89571959 1.9375 16.3125 C1.1236422 17.47224737 0.29689366 18.62358045 -0.5625 19.75 C-1.8825 19.42 -3.2025 19.09 -4.5625 18.75 C-4.5625 14.75 -4.5625 14.75 -2.5625 11.75 C-3.243125 11.21375 -3.92375 10.6775 -4.625 10.125 C-6.5625 7.75 -6.5625 7.75 -6.5 4.625 C-5.28731596 0.90610228 -4.00622377 -0.3908511 0 0 Z " fill="#515252" transform="translate(1198.5625,511.25)"/>
<path d="M0 0 C0.7425 0.2475 1.485 0.495 2.25 0.75 C2.875 4.125 2.875 4.125 3.25 7.75 C2.59 8.41 1.93 9.07 1.25 9.75 C-2.375 9.375 -2.375 9.375 -5.75 8.75 C-6.5 6.5 -6.5 6.5 -6.75 3.75 C-4.64876805 0.67896869 -3.78845323 -0.34440484 0 0 Z " fill="#515252" transform="translate(1715.75,467.25)"/>
<path d="M0 0 C3.29714793 0.32971479 4.6226839 0.6226839 7 3 C6.43181818 8.56818182 6.43181818 8.56818182 5 10 C2.0625 10.25 2.0625 10.25 -1 10 C-3 7 -3 7 -2.75 4.4375 C-2 2 -2 2 0 0 Z " fill="#515252" transform="translate(892,467)"/>
</svg>
